# MagicaVoxel @ Ephtracy

# material
mtllib EnemyCastleDoor.mtl
usemtl palette

# normals
vn -1 0 0
vn 1 0 0
vn 0 0 1
vn 0 0 -1
vn 0 -1 0
vn 0 1 0

# texcoords
vt 0.814453 0.5
vt 0.990234 0.5

# verts
v -7 0 19
v -7 0 18
v -7 4 20
v -7 4 19
v -7 4 18
v -7 8 20
v -7 8 19
v -7 8 18
v -7 9 19
v -7 9 18
v -7 9 17
v -7 10 18
v -7 10 17
v -7 10 16
v -7 11 17
v -7 11 16
v -7 11 15
v -7 12 16
v -7 12 15
v -7 12 14
v -7 13 15
v -7 13 14
v -7 13 13
v -7 14 14
v -7 14 13
v -7 14 12
v -7 15 13
v -7 15 12
v -7 15 11
v -7 16 12
v -7 16 11
v -7 16 10
v -7 17 11
v -7 17 10
v -7 17 9
v -7 18 10
v -7 18 9
v -7 18 8
v -7 19 9
v -7 19 8
v -6 18 8
v -6 18 6
v -6 19 8
v -6 19 6
v -4 18 6
v -4 18 5
v -4 19 6
v -4 19 5
v -3 19 5
v -3 19 4
v -3 20 5
v -3 20 4
v 3 19 5
v 3 19 4
v 3 20 5
v 3 20 4
v 4 18 6
v 4 18 5
v 4 19 6
v 4 19 5
v 6 18 8
v 6 18 6
v 6 19 8
v 6 19 6
v 7 0 19
v 7 0 18
v 7 4 20
v 7 4 19
v 7 4 18
v 7 8 20
v 7 8 19
v 7 8 18
v 7 9 19
v 7 9 18
v 7 9 17
v 7 10 18
v 7 10 17
v 7 10 16
v 7 11 17
v 7 11 16
v 7 11 15
v 7 12 16
v 7 12 15
v 7 12 14
v 7 13 15
v 7 13 14
v 7 13 13
v 7 14 14
v 7 14 13
v 7 14 12
v 7 15 13
v 7 15 12
v 7 15 11
v 7 16 12
v 7 16 11
v 7 16 10
v 7 17 11
v 7 17 10
v 7 17 9
v 7 18 10
v 7 18 9
v 7 18 8
v 7 19 9
v 7 19 8
v -7 4 20
v -7 8 20
v 7 4 20
v 7 8 20
v -7 0 19
v -7 4 19
v -7 8 19
v -7 9 19
v 7 0 19
v 7 4 19
v 7 8 19
v 7 9 19
v -7 9 18
v -7 10 18
v 7 9 18
v 7 10 18
v -7 10 17
v -7 11 17
v 7 10 17
v 7 11 17
v -7 11 16
v -7 12 16
v 7 11 16
v 7 12 16
v -7 12 15
v -7 13 15
v 7 12 15
v 7 13 15
v -7 13 14
v -7 14 14
v 7 13 14
v 7 14 14
v -7 14 13
v -7 15 13
v 7 14 13
v 7 15 13
v -7 15 12
v -7 16 12
v 7 15 12
v 7 16 12
v -7 16 11
v -7 17 11
v 7 16 11
v 7 17 11
v -7 17 10
v -7 18 10
v 7 17 10
v 7 18 10
v -7 18 9
v -7 19 9
v 7 18 9
v 7 19 9
v -3 19 5
v -3 20 5
v 3 19 5
v 3 20 5
v -7 4 19
v -7 8 19
v 7 4 19
v 7 8 19
v -7 0 18
v -7 4 18
v -7 8 18
v -7 9 18
v 7 0 18
v 7 4 18
v 7 8 18
v 7 9 18
v -7 9 17
v -7 10 17
v 7 9 17
v 7 10 17
v -7 10 16
v -7 11 16
v 7 10 16
v 7 11 16
v -7 11 15
v -7 12 15
v 7 11 15
v 7 12 15
v -7 12 14
v -7 13 14
v 7 12 14
v 7 13 14
v -7 13 13
v -7 14 13
v 7 13 13
v 7 14 13
v -7 14 12
v -7 15 12
v 7 14 12
v 7 15 12
v -7 15 11
v -7 16 11
v 7 15 11
v 7 16 11
v -7 16 10
v -7 17 10
v 7 16 10
v 7 17 10
v -7 17 9
v -7 18 9
v 7 17 9
v 7 18 9
v -7 18 8
v -7 19 8
v -6 18 8
v -6 19 8
v 6 18 8
v 6 19 8
v 7 18 8
v 7 19 8
v -6 18 6
v -6 19 6
v -4 18 6
v -4 19 6
v 4 18 6
v 4 19 6
v 6 18 6
v 6 19 6
v -4 18 5
v -4 19 5
v -3 19 5
v 3 19 5
v 4 18 5
v 4 19 5
v -3 19 4
v -3 20 4
v 3 19 4
v 3 20 4
v -7 0 19
v 7 0 19
v -7 0 18
v 7 0 18
v -7 4 20
v 7 4 20
v -7 4 19
v 7 4 19
v -7 8 19
v 7 8 19
v -7 8 18
v 7 8 18
v -7 9 18
v 7 9 18
v -7 9 17
v 7 9 17
v -7 10 17
v 7 10 17
v -7 10 16
v 7 10 16
v -7 11 16
v 7 11 16
v -7 11 15
v 7 11 15
v -7 12 15
v 7 12 15
v -7 12 14
v 7 12 14
v -7 13 14
v 7 13 14
v -7 13 13
v 7 13 13
v -7 14 13
v 7 14 13
v -7 14 12
v 7 14 12
v -7 15 12
v 7 15 12
v -7 15 11
v 7 15 11
v -7 16 11
v 7 16 11
v -7 16 10
v 7 16 10
v -7 17 10
v 7 17 10
v -7 17 9
v 7 17 9
v -7 18 9
v 7 18 9
v -7 18 8
v -6 18 8
v 6 18 8
v 7 18 8
v -6 18 6
v -4 18 6
v 4 18 6
v 6 18 6
v -4 18 5
v 4 18 5
v -3 19 5
v 3 19 5
v -3 19 4
v 3 19 4
v -7 4 19
v 7 4 19
v -7 4 18
v 7 4 18
v -7 8 20
v 7 8 20
v -7 8 19
v 7 8 19
v -7 9 19
v 7 9 19
v -7 9 18
v 7 9 18
v -7 10 18
v 7 10 18
v -7 10 17
v 7 10 17
v -7 11 17
v 7 11 17
v -7 11 16
v 7 11 16
v -7 12 16
v 7 12 16
v -7 12 15
v 7 12 15
v -7 13 15
v 7 13 15
v -7 13 14
v 7 13 14
v -7 14 14
v 7 14 14
v -7 14 13
v 7 14 13
v -7 15 13
v 7 15 13
v -7 15 12
v 7 15 12
v -7 16 12
v 7 16 12
v -7 16 11
v 7 16 11
v -7 17 11
v 7 17 11
v -7 17 10
v 7 17 10
v -7 18 10
v 7 18 10
v -7 18 9
v 7 18 9
v -7 19 9
v 7 19 9
v -7 19 8
v -6 19 8
v 6 19 8
v 7 19 8
v -6 19 6
v -4 19 6
v 4 19 6
v 6 19 6
v -4 19 5
v -3 19 5
v 3 19 5
v 4 19 5
v -3 20 5
v 3 20 5
v -3 20 4
v 3 20 4

# faces
f 4/1/1 2/1/1 1/1/1
f 5/1/1 2/1/1 4/1/1
f 6/2/1 4/2/1 3/2/1
f 7/2/1 4/2/1 6/2/1
f 9/1/1 8/1/1 7/1/1
f 10/1/1 8/1/1 9/1/1
f 12/2/1 11/2/1 10/2/1
f 13/2/1 11/2/1 12/2/1
f 15/1/1 14/1/1 13/1/1
f 16/1/1 14/1/1 15/1/1
f 18/2/1 17/2/1 16/2/1
f 19/2/1 17/2/1 18/2/1
f 21/1/1 20/1/1 19/1/1
f 22/1/1 20/1/1 21/1/1
f 24/2/1 23/2/1 22/2/1
f 25/2/1 23/2/1 24/2/1
f 27/1/1 26/1/1 25/1/1
f 28/1/1 26/1/1 27/1/1
f 30/2/1 29/2/1 28/2/1
f 31/2/1 29/2/1 30/2/1
f 33/1/1 32/1/1 31/1/1
f 34/1/1 32/1/1 33/1/1
f 36/2/1 35/2/1 34/2/1
f 37/2/1 35/2/1 36/2/1
f 39/1/1 38/1/1 37/1/1
f 40/1/1 38/1/1 39/1/1
f 43/2/1 42/2/1 41/2/1
f 44/2/1 42/2/1 43/2/1
f 47/2/1 46/2/1 45/2/1
f 48/2/1 46/2/1 47/2/1
f 51/2/1 50/2/1 49/2/1
f 52/2/1 50/2/1 51/2/1
f 53/2/2 54/2/2 55/2/2
f 55/2/2 54/2/2 56/2/2
f 57/2/2 58/2/2 59/2/2
f 59/2/2 58/2/2 60/2/2
f 61/2/2 62/2/2 63/2/2
f 63/2/2 62/2/2 64/2/2
f 65/1/2 66/1/2 68/1/2
f 68/1/2 66/1/2 69/1/2
f 67/2/2 68/2/2 70/2/2
f 70/2/2 68/2/2 71/2/2
f 71/1/2 72/1/2 73/1/2
f 73/1/2 72/1/2 74/1/2
f 74/2/2 75/2/2 76/2/2
f 76/2/2 75/2/2 77/2/2
f 77/1/2 78/1/2 79/1/2
f 79/1/2 78/1/2 80/1/2
f 80/2/2 81/2/2 82/2/2
f 82/2/2 81/2/2 83/2/2
f 83/1/2 84/1/2 85/1/2
f 85/1/2 84/1/2 86/1/2
f 86/2/2 87/2/2 88/2/2
f 88/2/2 87/2/2 89/2/2
f 89/1/2 90/1/2 91/1/2
f 91/1/2 90/1/2 92/1/2
f 92/2/2 93/2/2 94/2/2
f 94/2/2 93/2/2 95/2/2
f 95/1/2 96/1/2 97/1/2
f 97/1/2 96/1/2 98/1/2
f 98/2/2 99/2/2 100/2/2
f 100/2/2 99/2/2 101/2/2
f 101/1/2 102/1/2 103/1/2
f 103/1/2 102/1/2 104/1/2
f 107/2/3 106/2/3 105/2/3
f 108/2/3 106/2/3 107/2/3
f 113/1/3 110/1/3 109/1/3
f 114/1/3 110/1/3 113/1/3
f 115/1/3 112/1/3 111/1/3
f 116/1/3 112/1/3 115/1/3
f 119/2/3 118/2/3 117/2/3
f 120/2/3 118/2/3 119/2/3
f 123/1/3 122/1/3 121/1/3
f 124/1/3 122/1/3 123/1/3
f 127/2/3 126/2/3 125/2/3
f 128/2/3 126/2/3 127/2/3
f 131/1/3 130/1/3 129/1/3
f 132/1/3 130/1/3 131/1/3
f 135/2/3 134/2/3 133/2/3
f 136/2/3 134/2/3 135/2/3
f 139/1/3 138/1/3 137/1/3
f 140/1/3 138/1/3 139/1/3
f 143/2/3 142/2/3 141/2/3
f 144/2/3 142/2/3 143/2/3
f 147/1/3 146/1/3 145/1/3
f 148/1/3 146/1/3 147/1/3
f 151/2/3 150/2/3 149/2/3
f 152/2/3 150/2/3 151/2/3
f 155/1/3 154/1/3 153/1/3
f 156/1/3 154/1/3 155/1/3
f 159/2/3 158/2/3 157/2/3
f 160/2/3 158/2/3 159/2/3
f 161/2/4 162/2/4 163/2/4
f 163/2/4 162/2/4 164/2/4
f 165/1/4 166/1/4 169/1/4
f 169/1/4 166/1/4 170/1/4
f 167/1/4 168/1/4 171/1/4
f 171/1/4 168/1/4 172/1/4
f 173/2/4 174/2/4 175/2/4
f 175/2/4 174/2/4 176/2/4
f 177/1/4 178/1/4 179/1/4
f 179/1/4 178/1/4 180/1/4
f 181/2/4 182/2/4 183/2/4
f 183/2/4 182/2/4 184/2/4
f 185/1/4 186/1/4 187/1/4
f 187/1/4 186/1/4 188/1/4
f 189/2/4 190/2/4 191/2/4
f 191/2/4 190/2/4 192/2/4
f 193/1/4 194/1/4 195/1/4
f 195/1/4 194/1/4 196/1/4
f 197/2/4 198/2/4 199/2/4
f 199/2/4 198/2/4 200/2/4
f 201/1/4 202/1/4 203/1/4
f 203/1/4 202/1/4 204/1/4
f 205/2/4 206/2/4 207/2/4
f 207/2/4 206/2/4 208/2/4
f 209/1/4 210/1/4 211/1/4
f 211/1/4 210/1/4 212/1/4
f 213/1/4 214/1/4 215/1/4
f 215/1/4 214/1/4 216/1/4
f 217/2/4 218/2/4 219/2/4
f 219/2/4 218/2/4 220/2/4
f 221/2/4 222/2/4 223/2/4
f 223/2/4 222/2/4 224/2/4
f 225/2/4 226/2/4 227/2/4
f 225/2/4 227/2/4 228/2/4
f 225/2/4 228/2/4 229/2/4
f 229/2/4 228/2/4 230/2/4
f 231/2/4 232/2/4 233/2/4
f 233/2/4 232/2/4 234/2/4
f 237/1/5 236/1/5 235/1/5
f 238/1/5 236/1/5 237/1/5
f 241/2/5 240/2/5 239/2/5
f 242/2/5 240/2/5 241/2/5
f 245/1/5 244/1/5 243/1/5
f 246/1/5 244/1/5 245/1/5
f 249/2/5 248/2/5 247/2/5
f 250/2/5 248/2/5 249/2/5
f 253/1/5 252/1/5 251/1/5
f 254/1/5 252/1/5 253/1/5
f 257/2/5 256/2/5 255/2/5
f 258/2/5 256/2/5 257/2/5
f 261/1/5 260/1/5 259/1/5
f 262/1/5 260/1/5 261/1/5
f 265/2/5 264/2/5 263/2/5
f 266/2/5 264/2/5 265/2/5
f 269/1/5 268/1/5 267/1/5
f 270/1/5 268/1/5 269/1/5
f 273/2/5 272/2/5 271/2/5
f 274/2/5 272/2/5 273/2/5
f 277/1/5 276/1/5 275/1/5
f 278/1/5 276/1/5 277/1/5
f 281/2/5 280/2/5 279/2/5
f 282/2/5 280/2/5 281/2/5
f 285/1/5 284/1/5 283/1/5
f 286/1/5 284/1/5 285/1/5
f 287/1/5 284/1/5 286/1/5
f 288/1/5 284/1/5 287/1/5
f 289/2/5 287/2/5 286/2/5
f 290/2/5 287/2/5 289/2/5
f 291/2/5 287/2/5 290/2/5
f 292/2/5 287/2/5 291/2/5
f 293/2/5 291/2/5 290/2/5
f 294/2/5 291/2/5 293/2/5
f 297/2/5 296/2/5 295/2/5
f 298/2/5 296/2/5 297/2/5
f 299/1/6 300/1/6 301/1/6
f 301/1/6 300/1/6 302/1/6
f 303/2/6 304/2/6 305/2/6
f 305/2/6 304/2/6 306/2/6
f 307/1/6 308/1/6 309/1/6
f 309/1/6 308/1/6 310/1/6
f 311/2/6 312/2/6 313/2/6
f 313/2/6 312/2/6 314/2/6
f 315/1/6 316/1/6 317/1/6
f 317/1/6 316/1/6 318/1/6
f 319/2/6 320/2/6 321/2/6
f 321/2/6 320/2/6 322/2/6
f 323/1/6 324/1/6 325/1/6
f 325/1/6 324/1/6 326/1/6
f 327/2/6 328/2/6 329/2/6
f 329/2/6 328/2/6 330/2/6
f 331/1/6 332/1/6 333/1/6
f 333/1/6 332/1/6 334/1/6
f 335/2/6 336/2/6 337/2/6
f 337/2/6 336/2/6 338/2/6
f 339/1/6 340/1/6 341/1/6
f 341/1/6 340/1/6 342/1/6
f 343/2/6 344/2/6 345/2/6
f 345/2/6 344/2/6 346/2/6
f 347/1/6 348/1/6 349/1/6
f 349/1/6 348/1/6 350/1/6
f 350/1/6 348/1/6 351/1/6
f 351/1/6 348/1/6 352/1/6
f 350/2/6 351/2/6 353/2/6
f 353/2/6 351/2/6 354/2/6
f 354/2/6 351/2/6 355/2/6
f 355/2/6 351/2/6 356/2/6
f 354/2/6 355/2/6 357/2/6
f 357/2/6 355/2/6 358/2/6
f 358/2/6 355/2/6 359/2/6
f 359/2/6 355/2/6 360/2/6
f 361/2/6 362/2/6 363/2/6
f 363/2/6 362/2/6 364/2/6
